<svg id="Layer_1" data-name="Layer 1" xmlns="http://www.w3.org/2000/svg" viewBox="0 0 324.25537 68.93622"><defs><style>.cls-1{fill:#ffffff;}</style></defs><title>lestorya</title><path class="cls-1" d="M425.63574,357.8606c-.51172,0-.8252.08886-.94336.26562a2.04469,2.04469,0,0,0-.17773,1.03223V387.302a2.04217,2.04217,0,0,0,.17773,1.03223c.11816.17676.43164.26563.94336.26563q.76611,0,.94433-.26563a2.04452,2.04452,0,0,0,.17676-1.03223V359.15845a2.047,2.047,0,0,0-.17676-1.03223Q426.40283,357.86108,425.63574,357.8606Z" transform="translate(-258.8172 -339.68262)"/><path class="cls-1" d="M521.80566,357.8606q-.76758,0-.94434.26562a2.04717,2.04717,0,0,0-.17675,1.03223v20.2959h2.24218v-20.2959a2.04469,2.04469,0,0,0-.17773-1.03223Q522.57178,357.86108,521.80566,357.8606Z" transform="translate(-258.8172 -339.68262)"/><path class="cls-1" d="M459.73828,358.15552h-1.1211v8.96777h1.1211c.51074,0,.82617-.08789.94336-.26465a2.049,2.049,0,0,0,.17773-1.0332v-6.37207a2.04469,2.04469,0,0,0-.17773-1.03223C460.56445,358.24439,460.249,358.15552,459.73828,358.15552Z" transform="translate(-258.8172 -339.68262)"/><path class="cls-1" d="M258.8172,339.68262v68.93622H583.07257V339.68262Zm57.55145,56.88208h-15.104V349.95435h9.5581v38.35058h5.5459Zm26.07764,0H327.75537V349.95435h14.63232V357.802h-5.07422v3.42188h4.83789v7.55176h-4.83789v19.58789h5.13282Zm32.80419-9.2627a24.348,24.348,0,0,1-.44238,5.19141,5.41769,5.41769,0,0,1-1.62256,2.97949,6.3491,6.3491,0,0,1-3.27441,1.35742,36.57731,36.57731,0,0,1-5.39844.32422,33.84993,33.84993,0,0,1-5.1626-.32422,6.43144,6.43144,0,0,1-3.21582-1.32714,5.25929,5.25929,0,0,1-1.62207-2.9502,24.669,24.669,0,0,1-.44287-5.251v-9.26367h9.32227V387.302a2.05,2.05,0,0,0,.17676,1.03223q.17724.26514.94433.26563.76611,0,.94385-.26563a2.04463,2.04463,0,0,0,.17676-1.03223v-8.37793a2.23029,2.23029,0,0,0-.354-1.35742,4.74494,4.74494,0,0,0-1.35693-1.06152q-.23657-.11865-1.12109-.62012-.88478-.501-2.00586-1.15039-1.12134-.64893-2.2417-1.35644a17.438,17.438,0,0,1-1.8291-1.29883,7.28308,7.28308,0,0,1-1.56348-1.56348,6.18579,6.18579,0,0,1-.85547-1.74023,9.54244,9.54244,0,0,1-.38379-2.15332q-.08862-1.20851-.08838-2.86133v-4.60254a25.54008,25.54008,0,0,1,.41309-5.16211,5.24181,5.24181,0,0,1,1.59277-2.9502,6.28529,6.28529,0,0,1,3.21582-1.35742,43.886,43.886,0,0,1,10.64942,0,6.32356,6.32356,0,0,1,3.24511,1.35742,5.40143,5.40143,0,0,1,1.62207,2.9502,23.89216,23.89216,0,0,1,.44288,5.16211v5.90039H365.6333v-5.90039a2.04715,2.04715,0,0,0-.17676-1.03223q-.17724-.26514-.94385-.26562-.76758,0-.94433.26562a2.05252,2.05252,0,0,0-.17676,1.03223v4.7793a2.7942,2.7942,0,0,0,.44238,1.74023,7.16118,7.16118,0,0,0,1.79932,1.38672q.17724.11865.82617.47168.64819.3545,1.53418.88574.88476.53028,1.8584,1.15039.97338.61963,1.74023,1.15039a13.103,13.103,0,0,1,2.03565,1.76953,5.412,5.412,0,0,1,1.0913,1.8584,9.0216,9.0216,0,0,1,.44288,2.30176q.08862,1.26855.08837,3.09668ZM404.396,357.8606h-4.543v38.7041h-9.6167V357.8606h-4.543v-7.90625H404.396Zm31.978,29.4414a24.348,24.348,0,0,1-.44238,5.19141,5.41728,5.41728,0,0,1-1.62207,2.97949,6.35269,6.35269,0,0,1-3.27539,1.35742,45.10152,45.10152,0,0,1-10.79639,0,6.34193,6.34193,0,0,1-3.27441-1.35742,5.26333,5.26333,0,0,1-1.59327-2.97949,26.03093,26.03093,0,0,1-.41259-5.19141V359.15845a25.58168,25.58168,0,0,1,.41259-5.16211,5.24526,5.24526,0,0,1,1.59327-2.9502,6.35018,6.35018,0,0,1,3.27441-1.35742,45.10152,45.10152,0,0,1,10.79639,0,6.361,6.361,0,0,1,3.27539,1.35742,5.4015,5.4015,0,0,1,1.62207,2.9502,23.92838,23.92838,0,0,1,.44238,5.16211Zm34.10156-23.01074a9.25286,9.25286,0,0,1-.41308,3.00977,5.69045,5.69045,0,0,1-1.03223,1.88769,3.99538,3.99538,0,0,1-1.32715,1.03223,5.92124,5.92124,0,0,1-1.29785.44238v.23633a6.28626,6.28626,0,0,1,1.62207.67871,3.75267,3.75267,0,0,1,1.26856,1.32715,7.94422,7.94422,0,0,1,.85546,2.331,17.329,17.329,0,0,1,.32422,3.6875V396.5647h-9.61621V375.91431a2.04469,2.04469,0,0,0-.17773-1.03223c-.11719-.17676-.43262-.26562-.94336-.26562h-1.1211V396.5647h-9.55859V349.95435h10.67969a36.55407,36.55407,0,0,1,5.39844.32519,6.50378,6.50378,0,0,1,3.27441,1.32715,5.20589,5.20589,0,0,1,1.62207,2.86133,22.39609,22.39609,0,0,1,.44238,4.98535Zm25.13379,17.28711V396.5647h-9.61719V381.57837l-6.3125-31.624h9.499l1.65136,18.998h.23633l1.8877-18.998h9.26269ZM532.543,396.5647h-9.61622V387.302h-2.24218v9.2627H511.4209V359.15845a23.857,23.857,0,0,1,.44335-5.16211,5.49076,5.49076,0,0,1,1.59278-2.9502,6.13645,6.13645,0,0,1,3.21484-1.35742,42.68376,42.68376,0,0,1,10.50195,0,6.50445,6.50445,0,0,1,3.2754,1.35742,5.3132,5.3132,0,0,1,1.65136,2.9502,23.92828,23.92828,0,0,1,.44239,5.16211Z" transform="translate(-258.8172 -339.68262)"/></svg>